<svg width="28" height="32" viewBox="0 0 28 32" fill="none" xmlns="http://www.w3.org/2000/svg">
<path d="M14 1C14.4187 1 14.675 0.825 14.9687 0.61875C15.3812 0.3375 15.875 0 17 0C19.2 0 20.6437 3.63125 21.5 6.9C19.775 7.5 17.3125 8 14 8C10.6875 8 8.22496 7.5 6.49996 6.9C7.35621 3.63125 8.79996 0 11 0C12.125 0 12.6187 0.3375 13.0312 0.61875C13.325 0.825 13.5812 1 14 1ZM0.537456 6.1125C0.974956 5.8875 1.50621 6.00625 1.79996 6.4C2.14996 6.86875 3.21871 7.775 5.23746 8.56875C7.23746 9.35 10.1125 10 14 10C17.8875 10 20.7625 9.35 22.7625 8.56875C24.7875 7.775 25.85 6.86875 26.2 6.4C26.4937 6.00625 27.0312 5.8875 27.4625 6.1125C27.8937 6.3375 28.1 6.85 27.95 7.3125C27.3687 9.05625 25.7625 11.2125 23.4187 12.9312C22.975 13.2562 22.5 13.5625 22 13.8562C22 13.9062 22 13.95 22 14C22 18.4187 18.4187 22 14 22C9.58121 22 5.99996 18.4187 5.99996 14C5.99996 13.95 5.99996 13.9062 5.99996 13.8562C5.49996 13.5687 5.02496 13.2562 4.58121 12.9312C2.23746 11.2187 0.631206 9.0625 0.0499561 7.31875C-0.106294 6.85625 0.0999561 6.34375 0.537456 6.11875V6.1125ZM6.29371 24H21.7C24.725 24 27.2812 26.2563 27.6562 29.2563L27.7187 29.75C27.8687 30.9438 26.9375 32 25.7312 32H2.26871C1.06246 32 0.131206 30.9438 0.281206 29.75L0.343706 29.2563C0.718706 26.2563 3.26871 24 6.29996 24H6.29371Z" fill="#48302A"/>
</svg>
